<svg width="600" height="400" viewBox="0 0 600 400" fill="none" xmlns="http://www.w3.org/2000/svg">
  <defs>
    <linearGradient id="aiBg" x1="0" y1="0" x2="600" y2="400">
      <stop offset="0%" stop-color="#1800AD" stop-opacity="0.3"/>
      <stop offset="100%" stop-color="#0D0B1A"/>
    </linearGradient>
  </defs>
  <rect width="600" height="400" rx="20" fill="#111019"/>
  <rect width="600" height="400" rx="20" fill="url(#aiBg)"/>
  <!-- Neural network nodes -->
  <circle cx="300" cy="120" r="24" fill="#1800AD" opacity="0.6" stroke="#CCA300" stroke-width="1.5"/>
  <circle cx="180" cy="200" r="20" fill="#1800AD" opacity="0.5" stroke="rgba(255,255,255,0.15)" stroke-width="1"/>
  <circle cx="420" cy="200" r="20" fill="#1800AD" opacity="0.5" stroke="rgba(255,255,255,0.15)" stroke-width="1"/>
  <circle cx="140" cy="300" r="16" fill="#1800AD" opacity="0.4" stroke="rgba(255,255,255,0.1)" stroke-width="1"/>
  <circle cx="240" cy="300" r="16" fill="#CCA300" opacity="0.3" stroke="#CCA300" stroke-width="1" stroke-opacity="0.3"/>
  <circle cx="360" cy="300" r="16" fill="#1800AD" opacity="0.4" stroke="rgba(255,255,255,0.1)" stroke-width="1"/>
  <circle cx="460" cy="300" r="16" fill="#1800AD" opacity="0.4" stroke="rgba(255,255,255,0.1)" stroke-width="1"/>
  <!-- Connections -->
  <line x1="300" y1="144" x2="180" y2="184" stroke="#CCA300" stroke-width="1" opacity="0.3"/>
  <line x1="300" y1="144" x2="420" y2="184" stroke="#CCA300" stroke-width="1" opacity="0.3"/>
  <line x1="180" y1="220" x2="140" y2="284" stroke="rgba(255,255,255,0.1)" stroke-width="1"/>
  <line x1="180" y1="220" x2="240" y2="284" stroke="rgba(255,255,255,0.1)" stroke-width="1"/>
  <line x1="420" y1="220" x2="360" y2="284" stroke="rgba(255,255,255,0.1)" stroke-width="1"/>
  <line x1="420" y1="220" x2="460" y2="284" stroke="rgba(255,255,255,0.1)" stroke-width="1"/>
  <!-- Center icon -->
  <text x="288" y="128" font-family="sans-serif" font-size="24">🤖</text>
  <!-- Floating particles -->
  <circle cx="80" cy="80" r="3" fill="#CCA300" opacity="0.4"/>
  <circle cx="520" cy="60" r="2" fill="#CCA300" opacity="0.3"/>
  <circle cx="540" cy="340" r="4" fill="#1800AD" opacity="0.5"/>
  <circle cx="60" cy="350" r="3" fill="#1800AD" opacity="0.4"/>
  <!-- Label -->
  <text x="300" y="370" font-family="sans-serif" font-size="16" font-weight="600" fill="#F0EDE8" text-anchor="middle" opacity="0.7">AI &amp; Emerging Tech</text>
</svg>
