<svg width="600" height="400" viewBox="0 0 600 400" fill="none" xmlns="http://www.w3.org/2000/svg">
  <defs>
    <linearGradient id="bizBg" x1="0" y1="0" x2="600" y2="400">
      <stop offset="0%" stop-color="#CCA300" stop-opacity="0.15"/>
      <stop offset="100%" stop-color="#0D0B1A"/>
    </linearGradient>
  </defs>
  <rect width="600" height="400" rx="20" fill="#111019"/>
  <rect width="600" height="400" rx="20" fill="url(#bizBg)"/>
  <!-- Growth chart -->
  <path d="M120 300 L200 260 L280 220 L360 180 L440 120 L500 80" stroke="#CCA300" stroke-width="2.5" fill="none" stroke-linecap="round"/>
  <path d="M120 300 L200 260 L280 220 L360 180 L440 120 L500 80 L500 300 L120 300 Z" fill="#CCA300" opacity="0.06"/>
  <!-- Data points -->
  <circle cx="200" cy="260" r="5" fill="#CCA300" opacity="0.6"/>
  <circle cx="280" cy="220" r="5" fill="#CCA300" opacity="0.6"/>
  <circle cx="360" cy="180" r="5" fill="#CCA300" opacity="0.7"/>
  <circle cx="440" cy="120" r="6" fill="#CCA300" opacity="0.8"/>
  <circle cx="500" cy="80" r="7" fill="#CCA300" opacity="0.9"/>
  <!-- Grid lines -->
  <line x1="120" y1="300" x2="520" y2="300" stroke="rgba(255,255,255,0.06)" stroke-width="1"/>
  <line x1="120" y1="240" x2="520" y2="240" stroke="rgba(255,255,255,0.04)" stroke-width="1"/>
  <line x1="120" y1="180" x2="520" y2="180" stroke="rgba(255,255,255,0.04)" stroke-width="1"/>
  <line x1="120" y1="120" x2="520" y2="120" stroke="rgba(255,255,255,0.04)" stroke-width="1"/>
  <!-- Briefcase icon area -->
  <rect x="60" y="70" width="80" height="70" rx="14" fill="rgba(255,255,255,0.04)" stroke="rgba(255,255,255,0.08)" stroke-width="1"/>
  <text x="86" y="114" font-family="sans-serif" font-size="28">💼</text>
  <!-- Floating cards -->
  <rect x="440" y="220" width="120" height="60" rx="10" fill="rgba(255,255,255,0.05)" stroke="rgba(255,255,255,0.08)" stroke-width="1"/>
  <text x="460" y="248" font-family="sans-serif" font-size="18" font-weight="700" fill="#CCA300">+42%</text>
  <text x="460" y="264" font-family="sans-serif" font-size="10" fill="#9CA3AF">Growth</text>
  <text x="300" y="370" font-family="sans-serif" font-size="16" font-weight="600" fill="#F0EDE8" text-anchor="middle" opacity="0.7">Business &amp; Entrepreneurship</text>
</svg>
