<svg width="600" height="400" viewBox="0 0 600 400" fill="none" xmlns="http://www.w3.org/2000/svg">
  <defs>
    <linearGradient id="crBg" x1="0" y1="0" x2="600" y2="400">
      <stop offset="0%" stop-color="#AD006A" stop-opacity="0.2"/>
      <stop offset="100%" stop-color="#0D0B1A"/>
    </linearGradient>
  </defs>
  <rect width="600" height="400" rx="20" fill="#111019"/>
  <rect width="600" height="400" rx="20" fill="url(#crBg)"/>
  <!-- Pen tool path -->
  <path d="M200 280 Q250 120 300 180 Q350 240 400 140" stroke="#CCA300" stroke-width="2.5" fill="none" opacity="0.5"/>
  <path d="M150 300 Q220 200 300 220 Q380 240 450 160" stroke="#1800AD" stroke-width="2" fill="none" opacity="0.4"/>
  <!-- Color palette circles -->
  <circle cx="180" cy="160" r="30" fill="#CCA300" opacity="0.25"/>
  <circle cx="240" cy="140" r="24" fill="#1800AD" opacity="0.35"/>
  <circle cx="210" cy="190" r="18" fill="#E6BE2E" opacity="0.2"/>
  <!-- Artboard frame -->
  <rect x="320" y="100" width="180" height="220" rx="12" fill="rgba(255,255,255,0.04)" stroke="rgba(255,255,255,0.1)" stroke-width="1"/>
  <rect x="340" y="120" width="140" height="80" rx="8" fill="#1800AD" opacity="0.2"/>
  <rect x="340" y="216" width="100" height="10" rx="3" fill="rgba(255,255,255,0.12)"/>
  <rect x="340" y="234" width="140" height="8" rx="2" fill="rgba(255,255,255,0.06)"/>
  <rect x="340" y="250" width="120" height="8" rx="2" fill="rgba(255,255,255,0.06)"/>
  <!-- Pen cursor -->
  <path d="M290 180 L296 168 L302 180 L296 176 Z" fill="#CCA300" opacity="0.7"/>
  <!-- Floating elements -->
  <circle cx="100" cy="80" r="4" fill="#CCA300" opacity="0.3"/>
  <circle cx="520" cy="300" r="3" fill="#1800AD" opacity="0.5"/>
  <rect x="480" y="80" width="40" height="40" rx="8" fill="rgba(255,255,255,0.04)" stroke="rgba(255,255,255,0.08)" stroke-width="1"/>
  <text x="300" y="370" font-family="sans-serif" font-size="16" font-weight="600" fill="#F0EDE8" text-anchor="middle" opacity="0.7">Creative &amp; Freelancing</text>
</svg>
