<svg width="600" height="400" viewBox="0 0 600 400" fill="none" xmlns="http://www.w3.org/2000/svg">
  <defs>
    <linearGradient id="mktBg" x1="0" y1="0" x2="600" y2="400">
      <stop offset="0%" stop-color="#1800AD" stop-opacity="0.2"/>
      <stop offset="50%" stop-color="#CCA300" stop-opacity="0.1"/>
      <stop offset="100%" stop-color="#0D0B1A"/>
    </linearGradient>
  </defs>
  <rect width="600" height="400" rx="20" fill="#111019"/>
  <rect width="600" height="400" rx="20" fill="url(#mktBg)"/>
  <!-- Phone mockup -->
  <rect x="230" y="60" width="140" height="280" rx="20" fill="#18162A" stroke="rgba(255,255,255,0.12)" stroke-width="1.5"/>
  <rect x="270" y="68" width="60" height="6" rx="3" fill="rgba(255,255,255,0.15)"/>
  <!-- Phone content -->
  <rect x="244" y="90" width="112" height="60" rx="8" fill="#1800AD" opacity="0.3"/>
  <rect x="254" y="100" width="60" height="8" rx="2" fill="rgba(255,255,255,0.15)"/>
  <rect x="254" y="114" width="80" height="6" rx="2" fill="rgba(255,255,255,0.08)"/>
  <rect x="254" y="126" width="40" height="14" rx="4" fill="#CCA300" opacity="0.5"/>
  <rect x="244" y="164" width="112" height="50" rx="8" fill="rgba(255,255,255,0.04)"/>
  <rect x="254" y="174" width="70" height="8" rx="2" fill="rgba(255,255,255,0.12)"/>
  <rect x="254" y="188" width="90" height="6" rx="2" fill="rgba(255,255,255,0.06)"/>
  <rect x="254" y="200" width="50" height="6" rx="2" fill="rgba(255,255,255,0.06)"/>
  <!-- Engagement metrics floating -->
  <rect x="80" y="120" width="120" height="50" rx="12" fill="rgba(255,255,255,0.05)" stroke="rgba(255,255,255,0.08)" stroke-width="1"/>
  <text x="100" y="148" font-family="sans-serif" font-size="14" font-weight="700" fill="#CCA300">12.4K</text>
  <text x="156" y="148" font-family="sans-serif" font-size="10" fill="#9CA3AF">reach</text>
  <rect x="400" y="140" width="130" height="50" rx="12" fill="rgba(255,255,255,0.05)" stroke="rgba(255,255,255,0.08)" stroke-width="1"/>
  <text x="420" y="168" font-family="sans-serif" font-size="14" font-weight="700" fill="#CCA300">8.2%</text>
  <text x="474" y="168" font-family="sans-serif" font-size="10" fill="#9CA3AF">engage</text>
  <!-- Notification bubbles -->
  <circle cx="400" cy="100" r="20" fill="#1800AD" opacity="0.3" stroke="rgba(255,255,255,0.1)" stroke-width="1"/>
  <text x="392" y="106" font-family="sans-serif" font-size="14">❤️</text>
  <circle cx="120" cy="220" r="18" fill="#CCA300" opacity="0.2" stroke="#CCA300" stroke-width="1" stroke-opacity="0.2"/>
  <text x="112" y="226" font-family="sans-serif" font-size="12">💬</text>
  <circle cx="480" cy="240" r="16" fill="#1800AD" opacity="0.3"/>
  <text x="472" y="246" font-family="sans-serif" font-size="12">📊</text>
  <text x="300" y="370" font-family="sans-serif" font-size="16" font-weight="600" fill="#F0EDE8" text-anchor="middle" opacity="0.7">Digital Marketing &amp; Content</text>
</svg>
