<svg width="600" height="400" viewBox="0 0 600 400" fill="none" xmlns="http://www.w3.org/2000/svg">
  <defs>
    <linearGradient id="techBg" x1="0" y1="0" x2="600" y2="400">
      <stop offset="0%" stop-color="#1800AD" stop-opacity="0.25"/>
      <stop offset="100%" stop-color="#0D0B1A"/>
    </linearGradient>
  </defs>
  <rect width="600" height="400" rx="20" fill="#111019"/>
  <rect width="600" height="400" rx="20" fill="url(#techBg)"/>
  <!-- Code editor -->
  <rect x="100" y="60" width="400" height="280" rx="14" fill="#14122A" stroke="rgba(255,255,255,0.1)" stroke-width="1"/>
  <!-- Title bar -->
  <rect x="100" y="60" width="400" height="36" rx="14" fill="#1A1830"/>
  <circle cx="124" cy="78" r="5" fill="#FF5F57" opacity="0.7"/>
  <circle cx="140" cy="78" r="5" fill="#FFBD2E" opacity="0.7"/>
  <circle cx="156" cy="78" r="5" fill="#28CA41" opacity="0.7"/>
  <rect x="220" y="72" width="80" height="12" rx="3" fill="rgba(255,255,255,0.1)"/>
  <!-- Code lines -->
  <text x="124" y="118" font-family="monospace" font-size="12" fill="#1800AD" opacity="0.8">const</text>
  <text x="164" y="118" font-family="monospace" font-size="12" fill="#CCA300" opacity="0.7">app</text>
  <text x="188" y="118" font-family="monospace" font-size="12" fill="rgba(255,255,255,0.4)">=</text>
  <text x="200" y="118" font-family="monospace" font-size="12" fill="#E6BE2E" opacity="0.7">createApp</text>
  <text x="284" y="118" font-family="monospace" font-size="12" fill="rgba(255,255,255,0.3)">()</text>

  <text x="124" y="142" font-family="monospace" font-size="12" fill="#1800AD" opacity="0.8">import</text>
  <text x="174" y="142" font-family="monospace" font-size="12" fill="rgba(255,255,255,0.3)">{</text>
  <text x="184" y="142" font-family="monospace" font-size="12" fill="#CCA300" opacity="0.6">useState</text>
  <text x="252" y="142" font-family="monospace" font-size="12" fill="rgba(255,255,255,0.3)">}</text>

  <rect x="124" y="156" width="280" height="10" rx="2" fill="rgba(255,255,255,0.04)"/>
  <text x="124" y="182" font-family="monospace" font-size="12" fill="#1800AD" opacity="0.8">function</text>
  <text x="190" y="182" font-family="monospace" font-size="12" fill="#E6BE2E" opacity="0.7">Dashboard</text>
  <text x="282" y="182" font-family="monospace" font-size="12" fill="rgba(255,255,255,0.3)">() {</text>

  <text x="140" y="206" font-family="monospace" font-size="12" fill="#1800AD" opacity="0.7">return</text>
  <text x="186" y="206" font-family="monospace" font-size="12" fill="rgba(255,255,255,0.3)">(</text>
  <rect x="140" y="216" width="200" height="8" rx="2" fill="rgba(255,255,255,0.04)"/>
  <rect x="140" y="232" width="160" height="8" rx="2" fill="rgba(255,255,255,0.04)"/>
  <rect x="140" y="248" width="240" height="8" rx="2" fill="rgba(255,255,255,0.04)"/>
  <rect x="140" y="264" width="180" height="8" rx="2" fill="rgba(255,255,255,0.04)"/>
  <text x="140" y="290" font-family="monospace" font-size="12" fill="rgba(255,255,255,0.3)">  )</text>
  <text x="124" y="310" font-family="monospace" font-size="12" fill="rgba(255,255,255,0.3)">}</text>
  <!-- Terminal output -->
  <rect x="420" y="180" width="140" height="100" rx="10" fill="rgba(255,255,255,0.04)" stroke="rgba(255,255,255,0.08)" stroke-width="1"/>
  <text x="434" y="204" font-family="monospace" font-size="9" fill="#28CA41" opacity="0.7">$ npm run dev</text>
  <text x="434" y="220" font-family="monospace" font-size="9" fill="#CCA300" opacity="0.5">ready in 1.2s</text>
  <text x="434" y="236" font-family="monospace" font-size="9" fill="rgba(255,255,255,0.3)">localhost:3000</text>
  <rect x="434" y="248" width="6" height="12" rx="1" fill="#CCA300" opacity="0.6"/>
  <text x="300" y="370" font-family="sans-serif" font-size="16" font-weight="600" fill="#F0EDE8" text-anchor="middle" opacity="0.7">Tech &amp; Development</text>
</svg>
