<svg width="800" height="500" viewBox="0 0 800 500" fill="none" xmlns="http://www.w3.org/2000/svg">
  <defs>
    <linearGradient id="heroGrad" x1="0" y1="0" x2="800" y2="500">
      <stop offset="0%" stop-color="#1800AD" stop-opacity="0.4"/>
      <stop offset="100%" stop-color="#CCA300" stop-opacity="0.2"/>
    </linearGradient>
    <linearGradient id="goldLine" x1="0" y1="0" x2="1" y2="0">
      <stop offset="0%" stop-color="#CCA300"/>
      <stop offset="100%" stop-color="#E6BE2E"/>
    </linearGradient>
  </defs>
  <rect width="800" height="500" rx="24" fill="#111019"/>
  <rect x="1" y="1" width="798" height="498" rx="23" stroke="url(#heroGrad)" stroke-width="2"/>
  <!-- Top bar -->
  <rect x="0" y="0" width="800" height="52" rx="24" fill="#18162A"/>
  <rect x="24" y="18" width="80" height="16" rx="4" fill="#CCA300" opacity="0.6"/>
  <circle cx="760" cy="26" r="14" fill="#1800AD" opacity="0.5"/>
  <circle cx="720" cy="26" r="14" fill="rgba(255,255,255,0.08)"/>
  <!-- Sidebar -->
  <rect x="0" y="52" width="200" height="448" fill="#14122A"/>
  <rect x="20" y="76" width="160" height="36" rx="10" fill="#1800AD" opacity="0.3"/>
  <rect x="36" y="88" width="80" height="12" rx="3" fill="#CCA300" opacity="0.5"/>
  <rect x="20" y="128" width="160" height="32" rx="8" fill="rgba(255,255,255,0.04)"/>
  <rect x="36" y="138" width="100" height="12" rx="3" fill="rgba(255,255,255,0.15)"/>
  <rect x="20" y="172" width="160" height="32" rx="8" fill="rgba(255,255,255,0.04)"/>
  <rect x="36" y="182" width="90" height="12" rx="3" fill="rgba(255,255,255,0.15)"/>
  <rect x="20" y="216" width="160" height="32" rx="8" fill="rgba(255,255,255,0.04)"/>
  <rect x="36" y="226" width="110" height="12" rx="3" fill="rgba(255,255,255,0.15)"/>
  <rect x="20" y="260" width="160" height="32" rx="8" fill="rgba(255,255,255,0.04)"/>
  <rect x="36" y="270" width="70" height="12" rx="3" fill="rgba(255,255,255,0.15)"/>
  <!-- Main content area -->
  <!-- Stats cards -->
  <rect x="224" y="76" width="132" height="90" rx="16" fill="rgba(255,255,255,0.05)" stroke="rgba(255,255,255,0.08)" stroke-width="1"/>
  <text x="258" y="118" font-family="sans-serif" font-size="28" font-weight="700" fill="#CCA300">500+</text>
  <text x="258" y="142" font-family="sans-serif" font-size="11" fill="#9CA3AF">Members</text>
  <rect x="372" y="76" width="132" height="90" rx="16" fill="rgba(255,255,255,0.05)" stroke="rgba(255,255,255,0.08)" stroke-width="1"/>
  <text x="406" y="118" font-family="sans-serif" font-size="28" font-weight="700" fill="#CCA300">50+</text>
  <text x="406" y="142" font-family="sans-serif" font-size="11" fill="#9CA3AF">Events</text>
  <rect x="520" y="76" width="132" height="90" rx="16" fill="rgba(255,255,255,0.05)" stroke="rgba(255,255,255,0.08)" stroke-width="1"/>
  <text x="554" y="118" font-family="sans-serif" font-size="28" font-weight="700" fill="#CCA300">80+</text>
  <text x="554" y="142" font-family="sans-serif" font-size="11" fill="#9CA3AF">Mentors</text>
  <rect x="668" y="76" width="108" height="90" rx="16" fill="rgba(255,255,255,0.05)" stroke="rgba(255,255,255,0.08)" stroke-width="1"/>
  <text x="698" y="118" font-family="sans-serif" font-size="28" font-weight="700" fill="#CCA300">6</text>
  <text x="698" y="142" font-family="sans-serif" font-size="11" fill="#9CA3AF">Tracks</text>
  <!-- Chart area -->
  <rect x="224" y="186" width="380" height="200" rx="16" fill="rgba(255,255,255,0.04)" stroke="rgba(255,255,255,0.06)" stroke-width="1"/>
  <text x="248" y="216" font-family="sans-serif" font-size="14" font-weight="600" fill="#F0EDE8">Track Distribution</text>
  <!-- Bar chart -->
  <rect x="260" y="340" width="44" height="20" rx="4" fill="#1800AD" opacity="0.7"/>
  <rect x="316" y="300" width="44" height="60" rx="4" fill="#1800AD" opacity="0.8"/>
  <rect x="372" y="260" width="44" height="100" rx="4" fill="url(#goldLine)"/>
  <rect x="428" y="290" width="44" height="70" rx="4" fill="#1800AD" opacity="0.7"/>
  <rect x="484" y="320" width="44" height="40" rx="4" fill="#1800AD" opacity="0.6"/>
  <rect x="540" y="280" width="44" height="80" rx="4" fill="#1800AD" opacity="0.75"/>
  <!-- Activity feed -->
  <rect x="620" y="186" width="156" height="200" rx="16" fill="rgba(255,255,255,0.04)" stroke="rgba(255,255,255,0.06)" stroke-width="1"/>
  <text x="636" y="216" font-family="sans-serif" font-size="12" font-weight="600" fill="#F0EDE8">Recent</text>
  <circle cx="648" cy="244" r="12" fill="#1800AD" opacity="0.4"/>
  <rect x="668" y="238" width="90" height="8" rx="2" fill="rgba(255,255,255,0.12)"/>
  <rect x="668" y="250" width="60" height="6" rx="2" fill="rgba(255,255,255,0.06)"/>
  <circle cx="648" cy="280" r="12" fill="#CCA300" opacity="0.3"/>
  <rect x="668" y="274" width="80" height="8" rx="2" fill="rgba(255,255,255,0.12)"/>
  <rect x="668" y="286" width="70" height="6" rx="2" fill="rgba(255,255,255,0.06)"/>
  <circle cx="648" cy="316" r="12" fill="#1800AD" opacity="0.4"/>
  <rect x="668" y="310" width="85" height="8" rx="2" fill="rgba(255,255,255,0.12)"/>
  <rect x="668" y="322" width="55" height="6" rx="2" fill="rgba(255,255,255,0.06)"/>
  <!-- Bottom cards -->
  <rect x="224" y="402" width="280" height="80" rx="16" fill="rgba(255,255,255,0.04)" stroke="rgba(255,255,255,0.06)" stroke-width="1"/>
  <rect x="248" y="420" width="120" height="12" rx="3" fill="rgba(255,255,255,0.15)"/>
  <rect x="248" y="440" width="200" height="8" rx="2" fill="rgba(255,255,255,0.06)"/>
  <rect x="248" y="454" width="160" height="8" rx="2" fill="rgba(255,255,255,0.06)"/>
  <rect x="520" y="402" width="256" height="80" rx="16" fill="rgba(255,255,255,0.04)" stroke="rgba(255,255,255,0.06)" stroke-width="1"/>
  <rect x="544" y="420" width="100" height="12" rx="3" fill="#CCA300" opacity="0.4"/>
  <rect x="544" y="440" width="180" height="8" rx="2" fill="rgba(255,255,255,0.06)"/>
  <rect x="544" y="454" width="140" height="8" rx="2" fill="rgba(255,255,255,0.06)"/>
</svg>
