<svg xmlns="http://www.w3.org/2000/svg" xmlns:xlink="http://www.w3.org/1999/xlink" width="2000" zoomAndPan="magnify" viewBox="0 0 1500 1499.999933" height="2000" preserveAspectRatio="xMidYMid meet" version="1.0"><defs><g/><clipPath id="bb56c23584"><path d="M 0.078125 45 L 1160 45 L 1160 580.800781 L 0.078125 580.800781 Z M 0.078125 45 " clip-rule="nonzero"/></clipPath><clipPath id="abbad8bad2"><rect x="0" width="1160" y="0" height="536"/></clipPath><clipPath id="125776683e"><path d="M 384.8125 66.941406 L 433.003906 66.941406 L 433.003906 115.132812 L 384.8125 115.132812 Z M 384.8125 66.941406 " clip-rule="nonzero"/></clipPath><clipPath id="312644443a"><path d="M 408.90625 66.941406 L 433.003906 91.039062 L 408.90625 115.132812 L 384.8125 91.039062 Z M 408.90625 66.941406 " clip-rule="nonzero"/></clipPath><clipPath id="c05337f257"><path d="M 0.8125 0.941406 L 49.003906 0.941406 L 49.003906 49.132812 L 0.8125 49.132812 Z M 0.8125 0.941406 " clip-rule="nonzero"/></clipPath><clipPath id="60c479ba97"><path d="M 24.90625 0.941406 L 49.003906 25.039062 L 24.90625 49.132812 L 0.8125 25.039062 Z M 24.90625 0.941406 " clip-rule="nonzero"/></clipPath><clipPath id="7fcd3d789d"><rect x="0" width="50" y="0" height="50"/></clipPath><clipPath id="06e7eee32b"><path d="M 406.070312 31.625 L 454.261719 31.625 L 454.261719 79.816406 L 406.070312 79.816406 Z M 406.070312 31.625 " clip-rule="nonzero"/></clipPath><clipPath id="59a776dc77"><path d="M 430.167969 31.625 L 454.261719 55.71875 L 430.167969 79.816406 L 406.070312 55.71875 Z M 430.167969 31.625 " clip-rule="nonzero"/></clipPath><clipPath id="867336e651"><path d="M 0.0703125 0.625 L 48.261719 0.625 L 48.261719 48.816406 L 0.0703125 48.816406 Z M 0.0703125 0.625 " clip-rule="nonzero"/></clipPath><clipPath id="0032fa7cfd"><path d="M 24.167969 0.625 L 48.261719 24.71875 L 24.167969 48.816406 L 0.0703125 24.71875 Z M 24.167969 0.625 " clip-rule="nonzero"/></clipPath><clipPath id="1f21b2c123"><rect x="0" width="49" y="0" height="49"/></clipPath><clipPath id="2635d65e51"><path d="M 426.46875 67.195312 L 474.660156 67.195312 L 474.660156 115.386719 L 426.46875 115.386719 Z M 426.46875 67.195312 " clip-rule="nonzero"/></clipPath><clipPath id="605f729005"><path d="M 450.5625 67.195312 L 474.660156 91.292969 L 450.5625 115.386719 L 426.46875 91.292969 Z M 450.5625 67.195312 " clip-rule="nonzero"/></clipPath><clipPath id="f28115b3da"><path d="M 0.46875 0.195312 L 48.660156 0.195312 L 48.660156 48.386719 L 0.46875 48.386719 Z M 0.46875 0.195312 " clip-rule="nonzero"/></clipPath><clipPath id="7596dc23e0"><path d="M 24.5625 0.195312 L 48.660156 24.292969 L 24.5625 48.386719 L 0.46875 24.292969 Z M 24.5625 0.195312 " clip-rule="nonzero"/></clipPath><clipPath id="456917c2f6"><rect x="0" width="49" y="0" height="49"/></clipPath><clipPath id="f10ace800d"><path d="M 1097.277344 33.714844 L 1166.21875 33.714844 L 1166.21875 102.65625 L 1097.277344 102.65625 Z M 1097.277344 33.714844 " clip-rule="nonzero"/></clipPath><clipPath id="f5fc42658f"><path d="M 1131.75 33.714844 C 1112.710938 33.714844 1097.277344 49.144531 1097.277344 68.183594 C 1097.277344 87.222656 1112.710938 102.65625 1131.75 102.65625 C 1150.785156 102.65625 1166.21875 87.222656 1166.21875 68.183594 C 1166.21875 49.144531 1150.785156 33.714844 1131.75 33.714844 Z M 1131.75 33.714844 " clip-rule="nonzero"/></clipPath><clipPath id="e3b117c979"><path d="M 694.332031 31.625 L 876.808594 31.625 L 876.808594 128.945312 L 694.332031 128.945312 Z M 694.332031 31.625 " clip-rule="nonzero"/></clipPath><clipPath id="e9196daeb3"><rect x="0" width="1200" y="0" height="581"/></clipPath></defs><g transform="matrix(1, 0, 0, 1, 172, 444)"><g clip-path="url(#e9196daeb3)"><g clip-path="url(#bb56c23584)"><g transform="matrix(1, 0, 0, 1, 0, 45)"><g clip-path="url(#abbad8bad2)"><g fill="#1800ad" fill-opacity="1"><g transform="translate(0.81768, 390.849181)"><g><path d="M 118.296875 -314.859375 L 175.875 -314.859375 C 195.664062 -314.859375 213.726562 -309.984375 230.0625 -300.234375 C 246.40625 -290.492188 259.453125 -277.453125 269.203125 -261.109375 C 278.953125 -244.765625 283.828125 -226.695312 283.828125 -206.90625 L 283.828125 0 L 225.34375 0 L 225.34375 -73.3125 L 118.296875 -73.3125 L 128.1875 -101.203125 C 131.789062 -111.398438 136.816406 -118.820312 143.265625 -123.46875 C 149.710938 -128.113281 158.484375 -130.4375 169.578125 -130.4375 L 225.34375 -130.4375 L 225.34375 -206.90625 C 225.34375 -215.90625 223.09375 -224.078125 218.59375 -231.421875 C 214.101562 -238.765625 208.109375 -244.6875 200.609375 -249.1875 C 193.109375 -253.6875 184.863281 -255.9375 175.875 -255.9375 L 159.234375 -255.9375 L 63.875 0 L 1.34375 0 Z M 118.296875 -314.859375 "/></g></g></g><g fill="#1800ad" fill-opacity="1"><g transform="translate(307.536631, 390.849181)"><g><path d="M 1.796875 -314.859375 L 243.796875 -314.859375 L 243.796875 -256.828125 L 1.796875 -256.828125 Z M 93.109375 0 L 93.109375 -201.0625 C 93.109375 -209.15625 96.101562 -216.125 102.09375 -221.96875 C 108.09375 -227.820312 114.992188 -230.75 122.796875 -230.75 L 152.03125 -230.75 L 152.03125 0 Z M 93.109375 0 "/></g></g></g><g fill="#1800ad" fill-opacity="1"><g transform="translate(553.541396, 390.849181)"><g><path d="M 26.984375 -314.859375 L 86.359375 -314.859375 L 86.359375 -185.3125 L 207.359375 -185.3125 L 207.359375 -314.859375 L 265.828125 -314.859375 L 265.828125 0 L 207.359375 0 L 207.359375 -128.640625 L 86.359375 -128.640625 L 86.359375 0 L 26.984375 0 Z M 26.984375 -314.859375 "/></g></g></g><g fill="#1800ad" fill-opacity="1"><g transform="translate(846.768323, 390.849181)"><g><path d="M 134.9375 -314.859375 L 282.921875 -314.859375 L 282.921875 -203.3125 C 282.921875 -183.820312 278.421875 -165.976562 269.421875 -149.78125 C 260.429688 -133.59375 248.289062 -120.550781 233 -110.65625 L 294.609375 0 L 228.046875 0 L 176.765625 -91.765625 C 175.867188 -91.460938 174.671875 -91.3125 173.171875 -91.3125 C 171.671875 -91.3125 170.472656 -91.3125 169.578125 -91.3125 L 107.953125 -91.3125 L 107.953125 -119.640625 C 107.953125 -127.441406 110.800781 -134.113281 116.5 -139.65625 C 122.195312 -145.207031 129.09375 -147.984375 137.1875 -147.984375 L 170.921875 -147.984375 C 180.515625 -147.984375 189.359375 -150.457031 197.453125 -155.40625 C 205.554688 -160.351562 212.003906 -166.875 216.796875 -174.96875 C 221.597656 -183.0625 224 -191.757812 224 -201.0625 L 224 -256.828125 L 134.9375 -256.828125 C 125.34375 -256.828125 116.570312 -254.425781 108.625 -249.625 C 100.675781 -244.832031 94.300781 -238.460938 89.5 -230.515625 C 84.707031 -222.566406 82.3125 -213.796875 82.3125 -204.203125 L 82.3125 0 L 22.9375 0 L 22.9375 -203.3125 C 22.9375 -223.695312 27.957031 -242.359375 38 -259.296875 C 48.050781 -276.242188 61.546875 -289.738281 78.484375 -299.78125 C 95.429688 -309.832031 114.25 -314.859375 134.9375 -314.859375 Z M 134.9375 -314.859375 "/></g></g></g></g></g></g><g clip-path="url(#125776683e)"><g clip-path="url(#312644443a)"><g transform="matrix(1, 0, 0, 1, 384, 66)"><g clip-path="url(#7fcd3d789d)"><g clip-path="url(#c05337f257)"><g clip-path="url(#60c479ba97)"><path fill="#1800ad" d="M 0.8125 0.941406 L 49.003906 0.941406 L 49.003906 49.132812 L 0.8125 49.132812 Z M 0.8125 0.941406 " fill-opacity="1" fill-rule="nonzero"/></g></g></g></g></g></g><g clip-path="url(#06e7eee32b)"><g clip-path="url(#59a776dc77)"><g transform="matrix(1, 0, 0, 1, 406, 31)"><g clip-path="url(#1f21b2c123)"><g clip-path="url(#867336e651)"><g clip-path="url(#0032fa7cfd)"><path fill="#1800ad" d="M 0.0703125 0.625 L 48.261719 0.625 L 48.261719 48.816406 L 0.0703125 48.816406 Z M 0.0703125 0.625 " fill-opacity="1" fill-rule="nonzero"/></g></g></g></g></g></g><g clip-path="url(#2635d65e51)"><g clip-path="url(#605f729005)"><g transform="matrix(1, 0, 0, 1, 426, 67)"><g clip-path="url(#456917c2f6)"><g clip-path="url(#f28115b3da)"><g clip-path="url(#7596dc23e0)"><path fill="#1800ad" d="M 0.46875 0.195312 L 48.660156 0.195312 L 48.660156 48.386719 L 0.46875 48.386719 Z M 0.46875 0.195312 " fill-opacity="1" fill-rule="nonzero"/></g></g></g></g></g></g><g clip-path="url(#f10ace800d)"><g clip-path="url(#f5fc42658f)"><path stroke-linecap="butt" transform="matrix(1.216508, 0, 0, 1.216508, 1097.277892, 33.712908)" fill="none" stroke-linejoin="miter" d="M 28.336945 0.00159159 C 12.686354 0.00159159 -0.000450694 12.685185 -0.000450694 28.335777 C -0.000450694 43.986368 12.686354 56.673173 28.336945 56.673173 C 43.984326 56.673173 56.67113 43.986368 56.67113 28.335777 C 56.67113 12.685185 43.984326 0.00159159 28.336945 0.00159159 Z M 28.336945 0.00159159 " stroke="#1800ad" stroke-width="13.563418" stroke-opacity="1" stroke-miterlimit="4"/></g></g><g clip-path="url(#e3b117c979)"><path fill="#1800ad" d="M 712.28125 102.25 C 801.085938 58.894531 876.957031 31.625 876.957031 31.625 C 873.808594 48.757812 864.71875 56.097656 864.71875 56.097656 C 829.058594 68.683594 735.359375 107.144531 694.453125 129.167969 C 699.695312 111.6875 712.28125 102.25 712.28125 102.25 Z M 712.28125 102.25 " fill-opacity="1" fill-rule="nonzero"/></g></g></g></svg>